<svg version="1.1" id="Layer_1" xmlns="http://www.w3.org/2000/svg" xmlns:xlink="http://www.w3.org/1999/xlink" x="0px" y="0px"
	 width="100%" viewBox="0 0 69 56" enable-background="new 0 0 69 56" xml:space="preserve">
<path fill="#FFFFFF" opacity="1.000000" stroke="none" 
	d="
M70.000000,15.988365 
	C70.000000,29.990515 70.000000,43.490257 70.000000,56.992500 
	C47.003773,56.994999 24.007545,56.994999 1.008487,56.997501 
	C1.005658,38.337463 1.005658,19.674923 1.002828,1.009288 
	C23.995432,1.006192 46.990864,1.006192 70.000000,1.006192 
	C70.000000,5.828648 70.000000,10.657303 70.000000,15.988365 
M15.517149,3.000000 
	C11.746160,3.000000 7.975170,3.000000 4.283138,3.000000 
	C4.283138,20.636082 4.283138,37.706280 4.283138,54.716785 
	C25.970289,54.716785 47.373100,54.716785 68.715836,54.716785 
	C68.715836,37.361893 68.715836,20.291626 68.715836,3.000000 
	C51.125397,3.000000 33.818192,3.000000 15.517149,3.000000 
z"/>
<path fill="#000000" opacity="1.000000" stroke="none" 
	d="
M16.014069,3.000000 
	C33.818192,3.000000 51.125397,3.000000 68.715836,3.000000 
	C68.715836,20.291626 68.715836,37.361893 68.715836,54.716785 
	C47.373100,54.716785 25.970289,54.716785 4.283138,54.716785 
	C4.283138,37.706280 4.283138,20.636082 4.283138,3.000000 
	C7.975170,3.000000 11.746160,3.000000 16.014069,3.000000 
M22.501589,4.993598 
	C17.069048,4.993598 11.636506,4.993598 6.280496,4.993598 
	C6.280496,21.308891 6.280496,37.048912 6.280496,52.719528 
	C26.641775,52.719528 46.714874,52.719528 66.719437,52.719528 
	C66.719437,36.691032 66.719437,20.950966 66.719437,4.993598 
	C52.122738,4.993598 37.811977,4.993598 22.501589,4.993598 
z"/>
<path fill="#FBFCFC" opacity="1.000000" stroke="none" 
	d="
M23.001404,4.993598 
	C37.811977,4.993598 52.122738,4.993598 66.719437,4.993598 
	C66.719437,20.950966 66.719437,36.691032 66.719437,52.719528 
	C46.714874,52.719528 26.641775,52.719528 6.280496,52.719528 
	C6.280496,37.048912 6.280496,21.308891 6.280496,4.993598 
	C11.636506,4.993598 17.069048,4.993598 23.001404,4.993598 
M29.761333,40.016399 
	C32.089100,38.693203 34.416866,37.370007 36.352283,36.269833 
	C38.110367,37.493317 40.296402,39.014622 42.482433,40.535927 
	C43.147182,40.121765 43.811932,39.707600 44.476677,39.293438 
	C37.681736,34.095707 39.203365,28.692930 43.786491,23.214668 
	C43.224476,22.863287 42.662460,22.511906 42.100445,22.160524 
	C40.055889,23.706390 38.011333,25.252258 36.745678,26.209206 
	C34.172310,25.164579 31.615231,24.126568 28.394148,23.012114 
	C27.949965,23.022949 27.505779,23.033783 26.249624,23.002285 
	C23.275724,24.444450 20.301823,25.886618 17.156906,27.411718 
	C17.156906,23.939857 17.156906,20.195347 17.156906,16.040525 
	C15.488812,16.133394 14.179265,16.206301 13.039085,16.269777 
	C13.039085,24.443178 13.039085,32.047604 13.039085,39.786919 
	C14.494449,39.786919 15.741298,39.786919 16.834295,39.786919 
	C17.175398,37.594151 17.478615,35.644936 17.893169,32.979980 
	C21.718363,35.817245 22.311874,41.729393 28.449066,40.015903 
	C28.623888,40.008400 28.798712,40.000893 29.761333,40.016399 
M50.836132,23.053364 
	C45.756023,25.345484 43.915874,29.398096 45.529217,34.740940 
	C46.886108,39.234501 49.264091,40.334282 55.980900,39.375374 
	C55.980900,41.857616 55.980900,44.300373 55.980900,47.016232 
	C57.553532,46.910080 58.776718,46.827515 59.900070,46.751690 
	C59.900070,38.635078 59.900070,30.876078 59.900070,23.464470 
	C56.947964,23.296249 54.297447,23.145214 50.836132,23.053364 
z"/>
<path fill="#120D0B" opacity="1.000000" stroke="none" 
	d="
M51.241531,23.023771 
	C54.297447,23.145214 56.947964,23.296249 59.900070,23.464470 
	C59.900070,30.876078 59.900070,38.635078 59.900070,46.751690 
	C58.776718,46.827515 57.553532,46.910080 55.980900,47.016232 
	C55.980900,44.300373 55.980900,41.857616 55.980900,39.375374 
	C49.264091,40.334282 46.886108,39.234501 45.529217,34.740940 
	C43.915874,29.398096 45.756023,25.345484 51.241531,23.023771 
M54.821159,35.862202 
	C55.150059,33.493931 55.887638,31.066002 55.556000,28.794151 
	C55.457958,28.122501 52.343388,27.891190 50.611149,27.458092 
	C50.298138,29.503603 49.379574,31.719145 49.889072,33.533710 
	C50.218254,34.706078 52.638908,35.291187 54.821159,35.862202 
z"/>
<path fill="#09080B" opacity="1.000000" stroke="none" 
	d="
M27.928282,39.954124 
	C22.311874,41.729393 21.718363,35.817245 17.893169,32.979980 
	C17.478615,35.644936 17.175398,37.594151 16.834295,39.786919 
	C15.741298,39.786919 14.494449,39.786919 13.039085,39.786919 
	C13.039085,32.047604 13.039085,24.443178 13.039085,16.269777 
	C14.179265,16.206301 15.488812,16.133394 17.156906,16.040525 
	C17.156906,20.195347 17.156906,23.939857 17.156906,27.411718 
	C20.301823,25.886618 23.275724,24.444450 26.638100,23.366796 
	C25.233658,25.857082 23.440744,27.982857 21.713871,30.030331 
	C23.937952,33.581966 25.933117,36.768047 27.928282,39.954124 
z"/>
<path fill="#130F14" opacity="1.000000" stroke="none" 
	d="
M29.058151,23.088554 
	C31.615231,24.126568 34.172310,25.164579 36.745678,26.209206 
	C38.011333,25.252258 40.055889,23.706390 42.100445,22.160524 
	C42.662460,22.511906 43.224476,22.863287 43.786491,23.214668 
	C39.203365,28.692930 37.681736,34.095707 44.476677,39.293438 
	C43.811932,39.707600 43.147182,40.121765 42.482433,40.535927 
	C40.296402,39.014622 38.110367,37.493317 36.352283,36.269833 
	C34.416866,37.370007 32.089100,38.693203 29.328156,39.643391 
	C33.106449,34.292397 34.025169,29.239061 29.277067,24.027012 
	C29.088242,23.819735 29.125978,23.406061 29.058151,23.088554 
z"/>
<path fill="#F1F3EF" opacity="1.000000" stroke="none" 
	d="
M28.726151,23.050335 
	C29.125978,23.406061 29.088242,23.819735 29.277067,24.027012 
	C34.025169,29.239061 33.106449,34.292397 28.934258,39.631886 
	C28.798712,40.000893 28.623888,40.008400 28.188675,39.985016 
	C25.933117,36.768047 23.937952,33.581966 21.713871,30.030331 
	C23.440744,27.982857 25.233658,25.857082 27.044085,23.387962 
	C27.505779,23.033783 27.949965,23.022949 28.726151,23.050335 
z"/>
<path fill="#EBEDE9" opacity="1.000000" stroke="none" 
	d="
M54.471733,36.000832 
	C52.638908,35.291187 50.218254,34.706078 49.889072,33.533710 
	C49.379574,31.719145 50.298138,29.503603 50.611149,27.458092 
	C52.343388,27.891190 55.457958,28.122501 55.556000,28.794151 
	C55.887638,31.066002 55.150059,33.493931 54.471733,36.000832 
z"/>
</svg>